HIERARCHY
ROOT Hips
{
	OFFSET 0.000000 0.000000 0.000000 
	CHANNELS 6 Xposition Yposition Zposition Zrotation Xrotation Yrotation
	JOINT Spine
	{
		OFFSET 0.068216 8.716983 0.061933 
		CHANNELS 3 Zrotation Xrotation Yrotation
		JOINT Spine1
		{
			OFFSET 0.091841 19.499594 0.154965 
			CHANNELS 3 Zrotation Xrotation Yrotation
			JOINT Neck
			{
				OFFSET 0.111973 23.130608 0.164272 
				CHANNELS 3 Zrotation Xrotation Yrotation
				JOINT Head
				{
					OFFSET 0.142121 15.879286 2.046665 
					CHANNELS 3 Zrotation Xrotation Yrotation
					End Site
					{
						OFFSET -0.000000 19.661171 0.000000 
					}
				}
			}
			JOINT LeftShoulder
			{
				OFFSET 4.006647 16.674030 -0.233922 
				CHANNELS 3 Zrotation Xrotation Yrotation
				JOINT LeftArm
				{
					OFFSET 19.848379 0.646019 0.045966 
					CHANNELS 3 Zrotation Xrotation Yrotation
					JOINT LeftForeArm
					{
						OFFSET 25.002844 0.326216 0.118852 
						CHANNELS 3 Zrotation Xrotation Yrotation
						JOINT LeftHand
						{
							OFFSET 27.270943 0.201616 0.168051 
							CHANNELS 3 Zrotation Xrotation Yrotation
							End Site
							{
								OFFSET 14.745877 0.000000 0.000000 
							}
						}
					}
				}
			}
			JOINT RightShoulder
			{
				OFFSET -3.818807 16.674065 -0.233921 
				CHANNELS 3 Zrotation Xrotation Yrotation
				JOINT RightArm
				{
					OFFSET -19.683405 0.660503 0.041885 
					CHANNELS 3 Zrotation Xrotation Yrotation
					JOINT RightForeArm
					{
						OFFSET -24.962872 0.233561 0.138901 
						CHANNELS 3 Zrotation Xrotation Yrotation
						JOINT RightHand
						{
							OFFSET -26.299232 0.143641 0.231017 
							CHANNELS 3 Zrotation Xrotation Yrotation
							End Site
							{
								OFFSET -14.745877 0.000000 0.000000 
							}
						}
					}
				}
			}
		}
	}
	JOINT LeftUpLeg
	{
		OFFSET 9.898802 0.655907 0.061934 
		CHANNELS 3 Zrotation Xrotation Yrotation
		JOINT LeftLeg
		{
			OFFSET 0.121209 -45.824165 0.025428 
			CHANNELS 3 Zrotation Xrotation Yrotation
			JOINT LeftFoot
			{
				OFFSET 0.142981 -29.653988 0.114248 
				CHANNELS 3 Zrotation Xrotation Yrotation
				JOINT LeftToeBase
				{
					OFFSET 0.140351 -5.745883 14.811176 
					CHANNELS 3 Zrotation Xrotation Yrotation
					End Site
					{
						OFFSET -0.000000 0.000000 3.932234 
					}
				}
			}
		}
	}
	JOINT RightUpLeg
	{
		OFFSET -9.762364 0.655901 0.061933 
		CHANNELS 3 Zrotation Xrotation Yrotation
		JOINT RightLeg
		{
			OFFSET -0.012337 -45.817001 0.076142 
			CHANNELS 3 Zrotation Xrotation Yrotation
			JOINT RightFoot
			{
				OFFSET 0.103903 -29.636383 -0.002943 
				CHANNELS 3 Zrotation Xrotation Yrotation
				JOINT RightToeBase
				{
					OFFSET -0.007732 -5.727583 14.747931 
					CHANNELS 3 Zrotation Xrotation Yrotation
					End Site
					{
						OFFSET -0.000000 0.000000 3.932234 
					}
				}
			}
		}
	}
}
MOTION
Frames: 17
Frame Time: 0.010000
1.459255 81.179787 9.150095 4.526717 3.947511 0.835004 3.889659 -4.347624 0.330933 -0.529724 -1.533989 0.066939 2.311752 7.615219 5.943826 -4.203652 13.179270 7.564169 1.962158 12.151117 1.523877 -73.972977 21.855902 -22.070532 -8.251055 -1.980343 -4.895348 8.247979 -2.242634 3.516372 -9.035512 9.989982 -10.267440 57.670383 50.100643 29.917685 5.419809 -12.375098 5.391532 -2.319487 -12.722607 0.636139 11.952641 -13.102681 7.308990 3.965868 -1.691489 8.590577 -10.179735 16.445471 3.694251 0.000000 0.000000 0.000000 -12.442729 -4.365431 9.795722 12.736552 22.843647 -9.330483 -11.267364 -13.609516 -11.135916 0.000000 0.000000 0.000000 
1.806821 81.052315 9.457176 4.635628 3.910168 0.748367 3.887072 -4.258091 0.343311 -0.586461 -1.529842 0.072319 2.312315 7.612106 5.987059 -4.232694 13.106926 7.613831 1.955663 12.142844 1.526375 -73.924011 21.822197 -22.076437 -8.193886 -2.050412 -4.920299 8.504313 -2.311524 3.426352 -9.054059 9.972512 -10.236796 57.619610 50.049278 29.852163 5.402628 -12.397650 5.347005 -2.206905 -12.740684 0.654254 12.317204 -13.344132 7.305151 3.984627 -2.288271 8.882947 -10.066235 17.471504 3.599612 0.000000 0.000000 0.000000 -12.735729 -4.350359 9.767093 12.768880 23.404741 -9.277542 -11.226660 -14.027194 -11.319179 0.000000 0.000000 0.000000 
2.169984 80.916718 9.770832 4.741049 3.870938 0.655567 3.881852 -4.167505 0.356071 -0.640811 -1.527249 0.077341 2.310203 7.612216 6.031446 -4.259890 13.041673 7.663960 1.946998 12.134983 1.530893 -73.874031 21.783768 -22.077837 -8.133297 -2.119302 -4.947970 8.741964 -2.379450 3.345414 -9.071976 9.955008 -10.208115 57.569866 49.994373 29.789968 5.385005 -12.418113 5.305134 -2.098578 -12.756757 0.668232 12.672759 -13.607470 7.305843 3.924115 -2.939858 9.155566 -9.751393 18.687696 3.642278 0.000000 0.000000 0.000000 -13.037133 -4.336843 9.735327 12.803153 23.982712 -9.215796 -11.184908 -14.455284 -11.508440 0.000000 0.000000 0.000000 
2.549058 80.772972 10.091354 4.843239 3.829886 0.556918 3.873442 -4.075626 0.368176 -0.692554 -1.527069 0.082714 2.304777 7.615841 6.076808 -4.285488 12.982760 7.714314 1.935879 12.128602 1.538042 -73.822670 21.741642 -22.075930 -8.069247 -2.186529 -4.977497 8.959303 -2.445833 3.273727 -9.089561 9.938028 -10.181772 57.521038 49.936970 29.731295 5.366952 -12.436927 5.266645 -1.995198 -12.771345 0.678821 13.014481 -13.827458 7.308077 3.970752 -3.364350 9.421145 -9.616629 19.412111 3.555365 0.000000 0.000000 0.000000 -13.347425 -4.323736 9.701561 12.838833 24.575022 -9.146815 -11.141659 -14.892902 -11.702794 0.000000 0.000000 0.000000 
2.944344 80.621063 10.419086 4.942400 3.787007 0.452788 3.861489 -3.982487 0.380304 -0.741862 -1.529441 0.087421 2.295932 7.622962 6.122897 -4.310263 12.928892 7.764728 1.922203 12.124494 1.548568 -73.769554 21.695652 -22.071383 -8.002639 -2.250883 -5.009103 9.156082 -2.509341 3.211649 -9.106760 9.921903 -10.157928 57.472656 49.877987 29.676256 5.348868 -12.454555 5.232359 -1.897941 -12.784995 0.686870 13.427891 -14.030722 7.329837 4.045018 -3.786894 9.676808 -9.774102 20.246012 3.388331 0.000000 0.000000 0.000000 -13.667362 -4.309564 9.668067 12.876603 25.178289 -9.072744 -11.096937 -15.338944 -11.901946 0.000000 0.000000 0.000000 
3.356133 80.460968 10.754358 5.038570 3.742549 0.343568 3.846017 -3.888661 0.391383 -0.789295 -1.533922 0.092378 2.283881 7.633207 6.169287 -4.335017 12.878424 7.814961 1.906268 12.123003 1.563049 -73.714645 21.645069 -22.064482 -7.934727 -2.310837 -5.043220 9.333355 -2.568455 3.158926 -9.123547 9.906807 -10.136729 57.424706 49.818470 29.624781 5.330918 -12.471514 5.203057 -1.807609 -12.798296 0.693242 13.801678 -14.243999 7.338079 4.063167 -4.188105 9.919513 -9.716177 21.060785 3.365416 0.000000 0.000000 0.000000 -13.997308 -4.292882 9.636867 12.916535 25.788795 -8.995926 -11.050489 -15.792447 -12.105098 0.000000 0.000000 0.000000 
3.784761 80.292717 11.097616 5.131706 3.696310 0.229624 3.827240 -3.794576 0.402095 -0.835687 -1.539526 0.097026 2.268754 7.645780 6.215491 -4.359850 12.829652 7.864520 1.888261 12.123656 1.581420 -73.658119 21.589294 -22.054731 -7.866096 -2.365113 -5.080015 9.492789 -2.621953 3.114750 -9.139684 9.893023 -10.118402 57.377396 49.759312 29.576725 5.312770 -12.488445 5.179138 -1.724552 -12.811926 0.698791 14.176047 -14.447800 7.340779 4.079150 -4.542105 10.156180 -9.686656 21.821131 3.376691 0.000000 0.000000 0.000000 -14.337575 -4.271446 9.609822 12.958430 26.402191 -8.918191 -11.002023 -16.252260 -12.311326 0.000000 0.000000 0.000000 
4.230573 80.116402 11.449244 5.221485 3.648631 0.111344 3.805735 -3.701213 0.415484 -0.951910 -1.568508 0.104208 2.258851 7.678656 6.255228 -4.177082 12.803156 7.860430 1.988544 12.160113 1.569406 -73.690002 21.495815 -22.040247 -7.777025 -2.399334 -5.109931 9.648111 -2.653398 3.078578 -9.067034 9.911719 -10.063869 57.278023 49.714417 29.523460 5.290385 -12.539191 5.178127 -1.635106 -12.860243 0.716041 14.550484 -14.641480 7.335268 4.092219 -4.851175 10.391204 -9.687512 22.529808 3.425120 0.000000 0.000000 0.000000 -14.688395 -4.243487 9.588925 13.002644 27.013584 -8.841350 -10.951363 -16.716759 -12.520050 0.000000 0.000000 0.000000 
4.693955 79.932289 11.809694 5.307437 3.599618 -0.010951 3.782131 -3.609251 0.425866 -0.998941 -1.573263 0.108839 2.237598 7.693112 6.299783 -4.199940 12.751394 7.906600 1.967201 12.162376 1.594955 -73.630760 21.429585 -22.022648 -7.709368 -2.439869 -5.152113 9.778547 -2.693169 3.048875 -9.080619 9.901121 -10.052047 57.233398 49.657322 29.480436 5.272017 -12.557570 5.165657 -1.569018 -12.876099 0.722079 14.924438 -14.824056 7.318985 4.101631 -5.118035 10.629188 -9.718497 23.190510 3.511608 0.000000 0.000000 0.000000 -15.049559 -4.206903 9.575023 13.048244 27.618097 -8.766280 -10.898201 -17.183798 -12.730001 0.000000 0.000000 0.000000 
5.175328 79.740776 12.179462 5.388981 3.549412 -0.137131 3.757190 -3.519422 0.437236 -1.047157 -1.576001 0.113246 2.213635 7.706839 6.342904 -4.221890 12.695074 7.950351 1.944012 12.164523 1.624076 -73.569611 21.358438 -22.001127 -7.643725 -2.472885 -5.196569 9.897141 -2.725482 3.025818 -9.093018 9.892536 -10.043890 57.190968 49.601471 29.439615 5.253871 -12.577102 5.158225 -1.512295 -12.893519 0.729412 15.297383 -14.994429 7.289864 4.106751 -5.345627 10.874492 -9.777984 23.807241 3.634972 0.000000 0.000000 0.000000 -15.421079 -4.159797 9.569431 13.095218 28.210480 -8.693574 -10.842323 -17.650215 -12.940538 0.000000 0.000000 0.000000 
5.675122 79.542419 12.559027 5.465361 3.498418 -0.267271 3.731799 -3.432708 0.449742 -1.097102 -1.575658 0.118362 2.187532 7.719121 6.384136 -4.242960 12.631202 7.991254 1.918882 12.166557 1.656907 -73.506111 21.282770 -21.976965 -7.581057 -2.498357 -5.241935 10.005671 -2.750173 3.009029 -9.104103 9.886149 -10.039702 57.151047 49.547497 29.401146 5.235611 -12.598262 5.154339 -1.464299 -12.912869 0.738765 15.668893 -15.151702 7.246127 4.106943 -5.536854 11.131681 -9.862993 24.384050 3.791862 0.000000 0.000000 0.000000 -15.802366 -4.100810 9.572404 13.142029 28.786081 -8.623274 -10.783171 -18.112535 -13.150023 0.000000 0.000000 0.000000 
6.193773 79.338036 12.948889 5.535853 3.447085 -0.401712 3.706773 -3.349855 0.464489 -1.149280 -1.571590 0.124404 2.159816 7.728995 6.423140 -4.262881 12.557295 8.028892 1.892125 12.168277 1.693449 -73.440361 21.202526 -21.950491 -7.522771 -2.516005 -5.287606 10.106271 -2.766882 2.998585 -9.113862 9.882358 -10.039586 57.114014 49.495934 29.365107 5.217193 -12.621404 5.152402 -1.424350 -12.934441 0.750815 16.038355 -15.294944 7.186359 4.101797 -5.694275 11.404986 -9.970122 24.924583 3.977595 0.000000 0.000000 0.000000 -16.192945 -4.028866 9.584536 13.187525 29.340017 -8.555171 -10.720133 -18.566048 -13.357209 0.000000 0.000000 0.000000 
6.732041 79.128517 13.350121 5.601573 3.392454 -0.541456 3.680951 -3.268101 0.482924 -1.204139 -1.563398 0.131478 2.131586 7.735573 6.459424 -4.281967 12.471231 8.062966 1.864256 12.169584 1.733808 -73.372787 21.118557 -21.922318 -7.469800 -2.525959 -5.332335 10.200859 -2.775734 2.994448 -9.122049 9.881466 -10.043413 57.080444 49.446609 29.330658 5.199163 -12.646417 5.151376 -1.392093 -12.958059 0.766040 16.402689 -15.419154 7.107997 4.091053 -5.820506 11.698532 -10.095168 25.431561 4.186384 0.000000 0.000000 0.000000 -16.594589 -3.939600 9.607177 13.230793 29.867672 -8.488365 -10.653127 -19.006569 -13.560895 0.000000 0.000000 0.000000 
7.289541 78.914963 13.761517 5.656741 3.344508 -0.684998 3.659370 -3.196606 0.504918 -1.261055 -1.551904 0.139931 2.103824 7.738295 6.492490 -4.300683 12.370598 8.093209 1.835667 12.170395 1.777756 -73.304222 21.031116 -21.892408 -7.423495 -2.528132 -5.375309 10.291585 -2.776531 2.996816 -9.128373 9.883906 -10.050920 57.050659 49.399944 29.297132 5.180974 -12.673447 5.149574 -1.366280 -12.983766 0.784965 16.767788 -15.535669 7.013146 4.073226 -5.914175 12.012772 -10.232801 25.906797 4.410448 0.000000 0.000000 0.000000 -17.000595 -3.842194 9.638421 13.270170 30.363796 -8.424762 -10.581344 -19.425278 -13.759171 0.000000 0.000000 0.000000 
7.867581 78.698509 14.184736 5.705163 3.296065 -0.833765 3.637610 -3.127876 0.532203 -1.319196 -1.537427 0.149509 2.077070 7.736204 6.521950 -4.319200 12.253886 8.119264 1.806564 12.170982 1.825131 -73.236008 20.940926 -21.861282 -7.384523 -2.522588 -5.414931 10.380263 -2.769260 3.005420 -9.133098 9.890203 -10.061799 57.025196 49.355495 29.263182 5.162874 -12.702152 5.146283 -1.345993 -13.011190 0.807655 17.126814 -15.634947 6.897438 4.048165 -5.976914 12.350299 -10.375446 26.351271 4.640432 0.000000 0.000000 0.000000 -17.415928 -3.728288 9.679731 13.304639 30.824461 -8.362393 -10.504780 -19.818436 -13.950648 0.000000 0.000000 0.000000 
8.466533 78.480400 14.619492 5.744940 3.250869 -0.986944 3.616541 -3.064546 0.564224 -1.377243 -1.520960 0.160870 2.052337 7.727943 6.547399 -4.338084 12.119967 8.141006 1.777345 12.171703 1.875857 -73.169777 20.847649 -21.828796 -7.354054 -2.508731 -5.450972 10.468839 -2.753292 3.020318 -9.136201 9.900710 -10.075659 57.004463 49.312897 29.227390 5.144508 -12.732285 5.140518 -1.330192 -13.040018 0.834347 17.480076 -15.721437 6.760976 4.015138 -6.006668 12.710537 -10.514107 26.764860 4.863597 0.000000 0.000000 0.000000 -17.838776 -3.600998 9.729872 13.333326 31.245329 -8.301559 -10.423324 -20.178308 -14.133740 0.000000 0.000000 0.000000 
9.087007 78.261879 15.065788 5.775333 3.210646 -1.143827 3.596361 -3.007302 0.601087 -1.434748 -1.503183 0.173907 2.031059 7.711969 6.568379 -4.357827 11.967466 8.158262 1.748965 12.172689 1.929659 -73.107407 20.751898 -21.794903 -7.332752 -2.486513 -5.482923 10.558977 -2.728642 3.041190 -9.137556 9.915867 -10.092113 56.989521 49.270443 29.188015 5.126046 -12.763106 5.131594 -1.317743 -13.069439 0.865008 17.826183 -15.797535 6.603767 3.973788 -6.000742 13.091837 -10.639364 27.145910 5.064722 0.000000 0.000000 0.000000 -18.268488 -3.461529 9.786373 13.354229 31.622944 -8.241224 -10.336734 -20.497965 -14.306394 0.000000 0.000000 0.000000 
